<?xml version="1.0" encoding="utf-8"?><svg xmlns="http://www.w3.org/2000/svg" xmlns:xlink="http://www.w3.org/1999/xlink"><symbol viewBox="0 -45 512 512" id="004-twitter" xmlns="http://www.w3.org/2000/svg"><path d="M194.816 422.71c-85.453 0-152.992-14.929-185.304-40.952l-.63-.508-.57-.57C.638 373-1.877 362.926 1.418 353.043l.3-.82c4-10.004 13.802-16.739 24.423-16.801 21.859-.379 40.984-2.985 58.34-8.043-27.684-12.875-46.915-35.168-58.356-67.434-3.848-10.062-.527-21.218 8.34-27.87 2.187-1.645 4.66-2.887 7.277-3.72-15.383-17.757-26.746-37.964-33.11-59.335l-.198-.665-.137-.68c-2.16-10.808 2.672-21.921 11.527-26.706 3.715-2.133 7.75-3.239 11.801-3.332-4.367-9.407-7.543-19.063-9.426-28.778-5.226-26.921-.914-53.91 12.813-80.214l3.175-6.352a17.759 17.759 0 0113.004-9.563 17.76 17.76 0 0115.356 4.958l5.785 5.792c45.703 47.915 86.64 70.649 157.418 86.204 3.16-27.168 14.906-52.422 33.855-72.297C286.156 13.738 316.27.469 348.398.016h.211c23.442 0 52.52 13.382 70.106 22.82 15.086-4.938 33.262-12.582 52.12-20.664 8.825-4.14 19.704-2.246 26.642 4.691 6.8 6.801 8.687 16.39 5.078 25.711a126.223 126.223 0 01-4.657 11.227c2.582 1.183 4.946 2.789 6.942 4.785 6.035 6.035 8.55 15.48 6.406 24.066l-.23.817c-7.227 23.289-21.11 42.258-39.47 54.164C468.48 290.918 345.52 422.71 194.817 422.71zM38.305 365.036c30.449 17.227 88.476 27.649 156.511 27.649 65.41 0 127.137-28.082 173.805-79.075 47.05-51.41 72.961-119.68 72.961-192.234v-.816c0-6.57 3.617-12.567 9.438-15.653C462.828 98.652 472.39 88 478.61 74.38c-6.415 1.012-12.934-1.563-16.93-6.93a17.621 17.621 0 01-.13-20.957 97.453 97.453 0 006.692-10.59c-16.285 6.84-31.75 12.973-45.176 17.047-4.878 1.477-10.316.899-14.773-1.59-23.902-13.316-46.164-21.277-59.586-21.316-49.527.758-89.797 43.176-89.797 94.605 0 5.317-2.36 10.301-6.465 13.68a17.646 17.646 0 01-14.672 3.695c-81.609-16.078-129.968-40.187-180.257-90.722-7.207 17.27-9.176 34.664-5.844 51.84 3.379 17.398 12.367 34.832 25.996 50.414 5.18 5.914 5.867 14.375 1.71 21.05-4.14 6.653-12.01 9.762-19.577 7.735-5.914-1.586-11.352-3.668-16.508-6.344 10.504 22.816 28.57 43.918 51.281 59.48 6.582 4.512 9.332 12.922 6.692 20.454-2.645 7.543-10.032 12.398-18.016 11.804-8.7-.644-16.406-2.296-23.5-5.082 12.734 25.934 33.082 40.203 64.43 45.657a17.72 17.72 0 0114.465 14.668 17.714 17.714 0 01-9.2 18.43c-26.718 14.163-55.922 21.765-91.14 23.628zm0 0"/></symbol><symbol viewBox="-110 1 511 512" id="013-facebook" xmlns="http://www.w3.org/2000/svg"><path d="M180 512H98.008c-13.695 0-24.836-11.14-24.836-24.836V302.227H25.336C11.64 302.227.5 291.082.5 277.39v-79.246c0-13.696 11.14-24.836 24.836-24.836h47.836v-39.684c0-39.348 12.355-72.824 35.726-96.805C132.375 12.73 165.184 0 203.778 0l62.53.102c13.672.023 24.794 11.164 24.794 24.835v73.579c0 13.695-11.137 24.836-24.829 24.836l-42.101.015c-12.84 0-16.11 2.574-16.809 3.363-1.152 1.31-2.523 5.008-2.523 15.223v31.352h58.27c4.386 0 8.636 1.082 12.288 3.12 7.88 4.403 12.778 12.727 12.778 21.723l-.031 79.247c0 13.687-11.141 24.828-24.836 24.828h-58.47v184.941C204.84 500.86 193.696 512 180 512zm-76.813-30.016h71.633V288.79c0-9.144 7.442-16.582 16.582-16.582h66.727l.027-68.883h-66.758c-9.14 0-16.578-7.437-16.578-16.582v-44.789c0-11.726 1.192-25.062 10.043-35.086 10.696-12.117 27.551-13.515 39.301-13.515l36.922-.016V30.109l-57.332-.093c-62.024 0-100.566 39.703-100.566 103.609v53.117c0 9.14-7.438 16.582-16.579 16.582H30.516v68.883h56.093c9.141 0 16.579 7.438 16.579 16.582zM266.25 30.117h.004zm0 0"/></symbol><symbol viewBox="0 0 512.001 512.001" id="014-instagram" xmlns="http://www.w3.org/2000/svg"><path d="M373.406 0H138.594C62.172 0 0 62.172 0 138.594V373.41C0 449.828 62.172 512 138.594 512H373.41C449.828 512 512 449.828 512 373.41V138.594C512 62.172 449.828 0 373.406 0zm108.578 373.41c0 59.867-48.707 108.574-108.578 108.574H138.594c-59.871 0-108.578-48.707-108.578-108.574V138.594c0-59.871 48.707-108.578 108.578-108.578H373.41c59.867 0 108.574 48.707 108.574 108.578zm0 0"/><path d="M256 116.004c-77.195 0-139.996 62.8-139.996 139.996S178.804 395.996 256 395.996 395.996 333.196 395.996 256 333.196 116.004 256 116.004zm0 249.976c-60.64 0-109.98-49.335-109.98-109.98 0-60.64 49.34-109.98 109.98-109.98 60.645 0 109.98 49.34 109.98 109.98 0 60.645-49.335 109.98-109.98 109.98zM399.344 66.285c-22.813 0-41.367 18.559-41.367 41.367 0 22.813 18.554 41.371 41.367 41.371s41.37-18.558 41.37-41.37-18.558-41.368-41.37-41.368zm0 52.719c-6.258 0-11.352-5.094-11.352-11.352 0-6.261 5.094-11.351 11.352-11.351 6.261 0 11.355 5.09 11.355 11.351 0 6.258-5.094 11.352-11.355 11.352zm0 0"/></symbol><symbol viewBox="-28 0 512 512.001" id="015-linkedin" xmlns="http://www.w3.org/2000/svg"><path d="M104.36 151.625H18.046C8.37 151.625.5 159.496.5 169.172v325.285C.5 504.129 8.371 512 18.047 512h86.312c9.672 0 17.543-7.871 17.543-17.543V169.172c0-9.676-7.87-17.547-17.543-17.547zm-12.5 330.332H30.542V181.668h61.316zM61.203 0C27.453 0 0 27.453 0 61.2c0 33.75 27.453 61.202 61.203 61.202 33.742 0 61.2-27.453 61.2-61.203C122.402 27.453 94.948 0 61.202 0zm0 92.36c-17.183 0-31.16-13.977-31.16-31.16 0-17.18 13.977-31.157 31.16-31.157 17.18 0 31.156 13.977 31.156 31.156 0 17.18-13.976 31.16-31.156 31.16zm339.844 97.402c-20.633-17.223-46.863-26.434-73.832-25.934a113.183 113.183 0 00-47.95 11.66v-7.101c0-9.254-7.503-16.758-16.757-16.758h-87.883c-9.254 0-16.758 7.504-16.758 16.758v326.855c0 9.258 7.504 16.758 16.758 16.758h89.617c8.297 0 15.024-6.727 15.024-15.02V302.102c0-16.684 13.054-30.801 29.726-31.297 17.328-.512 31.586 13.43 31.586 30.644v195.844c0 8.121 6.586 14.707 14.707 14.707h86.13c8.12 0 14.706-6.586 14.706-14.707V307.406c0-45.547-20.074-88.43-55.074-117.644zm25.031 292.195h-55.453V301.449c0-33.469-27.23-60.699-60.703-60.699-33.469 0-60.7 27.23-60.7 60.7v180.507H187.91V181.668h61.313V203.5h.02a14.948 14.948 0 003.757 9.957c5.496 6.211 14.992 6.79 21.203 1.29a83.224 83.224 0 0153.567-20.884c19.761-.375 38.94 6.367 54.027 18.961 28.144 23.492 44.281 57.965 44.281 94.582zm0 0"/></symbol><symbol viewBox="0 -60 512 511" id="020-telegram" xmlns="http://www.w3.org/2000/svg"><path d="M507.773 7.293c-5.015-6.11-13.332-8.375-20.726-5.656L17.39 171.359C8.008 174.77 1.42 183.04.199 192.941c-1.21 9.856 3.133 19.418 11.281 24.922l67.133 45.828a21.13 21.13 0 0021.832 1.243L246.07 188.14l-113.496 84.746c-5.328 3.98-8.512 10.328-8.512 16.976v78.5c0 8.098 4.442 15.516 11.59 19.367a22.028 22.028 0 0022.61-1.015l51.004-33.832 50.156 34.199c4.394 3.012 9.629 4.598 14.91 4.598 1.785 0 3.578-.184 5.344-.551 7.043-1.469 13.273-5.82 17.097-11.938L509.262 28.81a18.598 18.598 0 00-1.489-21.516zM273.211 360.156l-51.941-35.418a21.134 21.134 0 00-11.938-3.703c-4.07 0-8.144 1.184-11.71 3.55l-43.544 28.884v-59.176l200.41-149.645c8.95-6.683 11.203-18.847 5.239-28.293-5.97-9.445-17.918-12.636-27.797-7.425L91.148 235.902l-56.78-38.761L466.854 40.85zm0 0"/></symbol><symbol viewBox="0 0 512 512" id="027-whatsapp" xmlns="http://www.w3.org/2000/svg"><path d="M439.277 72.723C392.38 25.824 330.04 0 263.711 0h-.023c-32.805.004-64.774 6.355-95.012 18.883-30.242 12.527-57.336 30.64-80.535 53.84-46.895 46.894-72.72 109.246-72.72 175.566 0 39.55 9.544 78.856 27.626 113.875L1.313 481.391c-2.942 8.41-.86 17.55 5.445 23.851C11.168 509.656 16.973 512 22.94 512c2.559 0 5.145-.43 7.668-1.313l119.227-41.73c35.02 18.082 74.324 27.625 113.875 27.625 66.32 0 128.668-25.828 175.566-72.723C486.172 376.965 512 314.613 512 248.293c0-66.324-25.824-128.676-72.723-175.57zm-21.234 329.902c-41.223 41.227-96.035 63.926-154.332 63.926-35.664 0-71.094-8.82-102.461-25.516-5.687-3.023-12.41-3.543-18.445-1.43l-108.32 37.91 37.913-108.32c2.114-6.043 1.59-12.765-1.433-18.449-16.692-31.36-25.516-66.789-25.516-102.457 0-58.297 22.703-113.11 63.926-154.332 41.219-41.219 96.023-63.922 154.316-63.93h.02c58.3 0 113.11 22.703 154.332 63.93 41.227 41.223 63.93 96.031 63.93 154.332 0 58.3-22.703 113.113-63.93 154.336zm0 0"/><path d="M355.984 270.469c-11.421-11.422-30.007-11.422-41.43 0l-12.491 12.492c-31.02-16.902-56.122-42.004-73.028-73.024l12.492-12.492c11.426-11.422 11.426-30.007 0-41.43l-33.664-33.663c-11.422-11.422-30.008-11.422-41.43 0l-26.93 26.93c-15.425 15.425-16.194 41.945-2.167 74.675 12.18 28.418 34.469 59.652 62.762 87.945 28.293 28.293 59.527 50.582 87.945 62.762 15.55 6.664 29.695 9.988 41.918 9.988 13.504 0 24.66-4.058 32.758-12.156l26.93-26.934v.004c5.535-5.535 8.581-12.89 8.581-20.714 0-7.829-3.046-15.184-8.582-20.715zm-14.5 80.793c-4.402 4.402-17.941 5.945-41.609-4.196-24.992-10.71-52.887-30.742-78.543-56.398s-45.684-53.547-56.394-78.54c-10.145-23.667-8.602-37.21-4.2-41.612l26.414-26.414 32.625 32.628-15.636 15.641c-7.07 7.07-8.778 17.793-4.243 26.684 20.559 40.312 52.735 72.488 93.047 93.047 8.895 4.535 19.618 2.832 26.688-4.243l15.637-15.636 32.628 32.629zm0 0"/></symbol><symbol viewBox="1 0 511.999 511" id="028-skype" xmlns="http://www.w3.org/2000/svg"><path d="M487.875 299.984c2.688-14.75 4.047-29.375 4.047-43.5 0-31.793-6.262-62.644-18.613-91.691-12.305-28.938-29.22-54.285-50.266-75.34-21.035-21.039-46.383-37.953-75.344-50.266-29.043-12.351-59.894-18.613-91.695-18.613-14.106 0-28.73 1.363-43.5 4.051C189.53 8.613 163.64.5 135.512.5c-37.23 0-69.465 13.355-95.809 39.695C13.36 66.531 0 98.765 0 136c0 28.152 8.113 54.043 24.125 76.992-2.688 14.754-4.047 29.375-4.047 43.496 0 31.805 6.262 62.657 18.613 91.7 12.309 28.937 29.22 54.289 50.266 75.34 21.035 21.042 46.387 37.952 75.344 50.269 29.043 12.351 59.894 18.613 91.695 18.613 14.098 0 28.719-1.363 43.496-4.05 22.973 16.011 48.863 24.124 77 24.124 37.227 0 69.461-13.355 95.809-39.695C498.64 446.445 512 414.211 512 376.984c0-28.136-8.113-54.03-24.125-77zm-36.8 151.575c-20.802 20.796-45.196 30.906-74.583 30.906-22.816 0-42.894-6.488-61.387-19.836a24.567 24.567 0 00-14.34-4.629c-1.515 0-3.035.145-4.538.434-13.73 2.625-27.266 3.957-40.23 3.957-27.743 0-54.642-5.457-79.946-16.22-25.403-10.8-47.559-25.558-65.863-43.866-18.317-18.32-33.075-40.48-43.868-65.864-10.761-25.308-16.218-52.207-16.218-79.953 0-12.988 1.328-26.523 3.949-40.222 1.258-6.57-.274-13.457-4.203-18.895C36.504 178.906 30.02 158.832 30.02 136c0-29.39 10.109-53.785 30.906-74.578 20.8-20.793 45.199-30.902 74.586-30.902 22.8 0 42.867 6.484 61.355 19.816 5.453 3.937 12.348 5.469 18.91 4.219 13.72-2.63 27.254-3.961 40.227-3.961 27.742 0 54.64 5.457 79.945 16.219 25.403 10.8 47.563 25.562 65.864 43.867 18.316 18.32 33.074 40.48 43.867 65.863 10.765 25.309 16.218 52.207 16.218 79.945 0 12.992-1.328 26.528-3.949 40.23-1.258 6.56.281 13.45 4.215 18.907 13.332 18.48 19.816 38.555 19.816 61.363 0 29.383-10.109 53.774-30.906 74.57zm0 0"/><path d="M320.75 242.586c-9.09-6.14-19.074-11.914-29.68-17.156-10.437-5.153-20.27-9.493-29.226-12.899-6.82-2.594-12.504-5.902-16.899-9.844-3.261-2.921-3.703-5.242-3.703-7.128 0-3.793 1.153-6.004 4.25-8.157 4.473-3.105 11.98-4.75 21.711-4.75 9.535 0 18.23 1.828 25.824 5.434 14.754 7.016 19.895 8.344 24.211 8.344 11.14 0 20.625-5.684 26.719-16.02 4.742-8.066 7.145-16.246 7.145-24.316 0-10.133-4.395-19.23-12.72-26.328-6.702-5.696-15.198-9.875-25.265-12.426-8.418-2.125-16.531-3.68-24.133-4.625-7.605-.942-14.933-1.418-21.78-1.418-12.321 0-24.204 1.46-35.325 4.348a113.29 113.29 0 00-32.176 13.996c-10.922 6.925-19.703 16.648-26.11 28.898-6.308 12.055-9.507 25.973-9.507 41.371 0 13.762 2.61 26.328 7.754 37.344 5.203 11.16 12.262 20.309 20.98 27.191 7.594 5.996 16.07 11.45 25.203 16.211 8.696 4.54 17.41 8.672 25.887 12.281 7.75 3.31 14.945 6.762 21.375 10.254 5.004 2.727 8.871 5.977 11.813 9.918 2.304 3.098 3.379 6.418 3.379 10.442 0 6.762-2.45 9.379-5.094 11.195-5.227 3.59-11.934 5.336-20.504 5.336-6.465 0-12.113-1.078-17.281-3.3-6.586-2.833-9.942-5.344-11.61-6.97-4.203-4.07-8.578-7.835-13.004-11.18-6.632-5.015-13.277-7.554-19.746-7.554-7.078 0-17.398 2.524-26.36 14.563-6.183 8.304-9.316 16.992-9.316 25.828 0 16.836 10.833 31.586 32.196 43.84 18.664 10.703 41.058 16.129 66.57 16.129 29.41 0 53.723-8 72.27-23.782 19.265-16.386 29.035-39.543 29.035-68.82 0-17.137-3.512-32.484-10.438-45.621-6.941-13.149-15.836-23.453-26.445-30.63zm-11.605 122.207c-13.149 11.187-30.426 16.625-52.817 16.625-20.207 0-37.578-4.086-51.637-12.152-10.875-6.235-17.113-12.723-17.113-17.797 0-2.23 1.137-4.89 3.379-7.899.93-1.25 1.64-1.906 2.063-2.23.43.238 1.05.629 1.863 1.242 3.449 2.606 6.883 5.563 10.187 8.766 5.114 4.98 11.88 9.234 20.668 13.011 8.86 3.813 18.66 5.743 29.137 5.743 14.64 0 27.262-3.57 37.508-10.614 11.847-8.144 18.113-20.57 18.113-35.937 0-10.508-3.133-20.047-9.324-28.371-5.516-7.403-12.762-13.578-21.543-18.36-7.27-3.949-15.32-7.816-23.945-11.496-7.77-3.308-15.77-7.105-23.778-11.281-7.468-3.898-14.36-8.324-20.484-13.16-5.078-4.008-9.125-9.344-12.379-16.32-3.273-7.02-4.938-15.313-4.938-24.653 0-10.5 2.051-19.738 6.09-27.457 3.989-7.629 9.086-13.34 15.586-17.46a83.204 83.204 0 0123.649-10.294c8.652-2.246 17.996-3.383 27.773-3.383 5.621 0 11.711.399 18.086 1.188 6.367.793 13.258 2.121 20.473 3.941 5.566 1.41 10 3.493 13.164 6.18 2.156 1.84 2.156 2.86 2.156 3.469 0 2.648-1.012 5.707-2.996 9.082a8.61 8.61 0 01-.582.875c-1.781-.653-5.262-2.07-11.598-5.082-11.656-5.531-24.68-8.336-38.703-8.336-16.11 0-29.18 3.402-38.84 10.117-11.215 7.793-17.14 19.137-17.14 32.809 0 11.27 4.738 21.468 13.691 29.488 7.149 6.406 15.98 11.637 26.258 15.543 8.074 3.07 17.023 7.027 26.601 11.754 9.391 4.64 18.196 9.726 26.16 15.113 6.477 4.379 12.098 11.031 16.708 19.766 4.625 8.77 6.968 19.41 6.968 31.613 0 20.355-6.039 35.387-18.464 45.957zm0 0"/></symbol><symbol viewBox="0 -100 512 512" id="043-email" xmlns="http://www.w3.org/2000/svg"><path d="M494.535 0H17.465C7.835 0 0 7.836 0 17.465v276.453c0 9.629 7.836 17.46 17.465 17.46h477.07c9.63 0 17.465-7.831 17.465-17.46V17.465C512 7.835 504.164 0 494.535 0zM30.031 43.027L173.54 138.41 30.031 263.332zM256 157.157L64.734 30.03h382.532zm-56.523-1.512l46.855 31.144a17.433 17.433 0 009.668 2.93c3.363 0 6.73-.98 9.668-2.93l46.855-31.144 144.403 125.703H55.074zm138.984-17.239l143.508-95.383v220.309zm0 0"/></symbol><symbol viewBox="0 0 496 512" id="github" xmlns="http://www.w3.org/2000/svg"><path d="M165.9 397.4c0 2-2.3 3.6-5.2 3.6-3.3.3-5.6-1.3-5.6-3.6 0-2 2.3-3.6 5.2-3.6 3-.3 5.6 1.3 5.6 3.6zm-31.1-4.5c-.7 2 1.3 4.3 4.3 4.9 2.6 1 5.6 0 6.2-2s-1.3-4.3-4.3-5.2c-2.6-.7-5.5.3-6.2 2.3zm44.2-1.7c-2.9.7-4.9 2.6-4.6 4.9.3 2 2.9 3.3 5.9 2.6 2.9-.7 4.9-2.6 4.6-4.6-.3-1.9-3-3.2-5.9-2.9zM244.8 8C106.1 8 0 113.3 0 252c0 110.9 69.8 205.8 169.5 239.2 12.8 2.3 17.3-5.6 17.3-12.1 0-6.2-.3-40.4-.3-61.4 0 0-70 15-84.7-29.8 0 0-11.4-29.1-27.8-36.6 0 0-22.9-15.7 1.6-15.4 0 0 24.9 2 38.6 25.8 21.9 38.6 58.6 27.5 72.9 20.9 2.3-16 8.8-27.1 16-33.7-55.9-6.2-112.3-14.3-112.3-110.5 0-27.5 7.6-41.3 23.6-58.9-2.6-6.5-11.1-33.3 2.6-67.9 20.9-6.5 69 27 69 27 20-5.6 41.5-8.5 62.8-8.5s42.8 2.9 62.8 8.5c0 0 48.1-33.6 69-27 13.7 34.7 5.2 61.4 2.6 67.9 16 17.7 25.8 31.5 25.8 58.9 0 96.5-58.9 104.2-114.8 110.5 9.2 7.9 17 22.9 17 46.4 0 33.7-.3 75.4-.3 83.6 0 6.5 4.6 14.4 17.3 12.1C428.2 457.8 496 362.9 496 252 496 113.3 383.5 8 244.8 8zM97.2 352.9c-1.3 1-1 3.3.7 5.2 1.6 1.6 3.9 2.3 5.2 1 1.3-1 1-3.3-.7-5.2-1.6-1.6-3.9-2.3-5.2-1zm-10.8-8.1c-.7 1.3.3 2.9 2.3 3.9 1.6 1 3.6.7 4.3-.7.7-1.3-.3-2.9-2.3-3.9-2-.6-3.6-.3-4.3.7zm32.4 35.6c-1.6 1.3-1 4.3 1.3 6.2 2.3 2.3 5.2 2.6 6.5 1 1.3-1.3.7-4.3-1.3-6.2-2.2-2.3-5.2-2.6-6.5-1zm-11.4-14.7c-1.6 1-1.6 3.6 0 5.9 1.6 2.3 4.3 3.3 5.6 2.3 1.6-1.3 1.6-3.9 0-6.2-1.4-2.3-4-3.3-5.6-2z"/></symbol><symbol viewBox="0 0 576 512" id="home" xmlns="http://www.w3.org/2000/svg"><path d="M280.37 148.26L96 300.11V464a16 16 0 0016 16l112.06-.29a16 16 0 0015.92-16V368a16 16 0 0116-16h64a16 16 0 0116 16v95.64a16 16 0 0016 16.05L464 480a16 16 0 0016-16V300L295.67 148.26a12.19 12.19 0 00-15.3 0zM571.6 251.47L488 182.56V44.05a12 12 0 00-12-12h-56a12 12 0 00-12 12v72.61L318.47 43a48 48 0 00-61 0L4.34 251.47a12 12 0 00-1.6 16.9l25.5 31A12 12 0 0045.15 301l235.22-193.74a12.19 12.19 0 0115.3 0L530.9 301a12 12 0 0016.9-1.6l25.5-31a12 12 0 00-1.7-16.93z"/></symbol><symbol viewBox="0 0 401.98 402" id="phone" xmlns="http://www.w3.org/2000/svg"><path d="M401.129 311.475c-1.137-3.426-8.371-8.473-21.697-15.129-3.61-2.098-8.754-4.949-15.41-8.566a1437.412 1437.412 0 01-18.13-9.996 605.612 605.612 0 01-15.276-8.846c-.76-.571-3.139-2.234-7.136-5-4.001-2.758-7.375-4.805-10.14-6.14-2.759-1.327-5.473-1.995-8.138-1.995-3.806 0-8.56 2.714-14.268 8.135a139.01 139.01 0 00-15.7 17.706c-4.757 6.379-9.802 12.275-15.126 17.7-5.332 5.427-9.713 8.138-13.135 8.138-1.718 0-3.86-.479-6.427-1.424-2.566-.951-4.518-1.766-5.858-2.423-1.328-.671-3.607-1.999-6.845-4.004-3.244-1.999-5.048-3.094-5.428-3.285-26.075-14.469-48.438-31.029-67.093-49.676-18.649-18.658-35.211-41.019-49.676-67.097-.19-.381-1.287-2.19-3.284-5.424-2-3.237-3.333-5.518-3.999-6.854-.666-1.331-1.475-3.283-2.425-5.852s-1.427-4.709-1.427-6.424c0-3.424 2.713-7.804 8.138-13.134 5.424-5.327 11.326-10.373 17.7-15.128a138.95 138.95 0 0017.701-15.699c5.424-5.711 8.136-10.467 8.136-14.273 0-2.663-.666-5.378-1.997-8.137-1.332-2.765-3.378-6.139-6.139-10.138-2.762-3.997-4.427-6.374-4.999-7.139a627.13 627.13 0 01-8.848-15.271 1441.4 1441.4 0 01-9.995-18.131c-3.615-6.658-6.468-11.799-8.564-15.415C98.986 9.233 93.943 1.997 90.516.859 89.183.288 87.183 0 84.521 0c-5.142 0-11.85.95-20.129 2.856-8.282 1.903-14.799 3.899-19.558 5.996-9.517 3.995-19.604 15.605-30.264 34.826C4.863 61.566.01 79.271.01 96.78c0 5.135.333 10.131.999 14.989.666 4.853 1.856 10.326 3.571 16.418 1.712 6.09 3.093 10.614 4.137 13.56 1.045 2.948 2.996 8.229 5.852 15.845 2.852 7.614 4.567 12.275 5.138 13.988 6.661 18.654 14.56 35.307 23.695 49.964 15.03 24.362 35.541 49.539 61.521 75.521 25.981 25.98 51.153 46.49 75.517 61.526 14.655 9.134 31.314 17.032 49.965 23.698 1.714.568 6.375 2.279 13.986 5.141 7.614 2.854 12.897 4.805 15.845 5.852 2.949 1.048 7.474 2.43 13.559 4.145 6.098 1.715 11.566 2.905 16.419 3.576 4.856.657 9.853.996 14.989.996 17.508 0 35.214-4.856 53.105-14.562 19.219-10.656 30.826-20.745 34.823-30.269 2.102-4.754 4.093-11.273 5.996-19.555 1.909-8.278 2.857-14.985 2.857-20.126.006-2.673-.281-4.668-.855-6.012z"/></symbol></svg>